<?xml version="1.0" encoding="UTF-8"?>
<svg id="Iconos" xmlns="http://www.w3.org/2000/svg" viewBox="0 0 1080 1080">
  <defs>
    <style>
      .cls-1 {
        fill: none;
        stroke: #aa182c;
        stroke-miterlimit: 10;
        stroke-width: 80px;
      }
    </style>
  </defs>
  <path class="cls-1" d="M404.59,516.42c-34.95,37.43-84.73,60.83-139.98,60.83-105.75,0-191.47-85.73-191.47-191.47s85.73-191.47,191.47-191.47c12.29,0,24.31,1.09,35.94,3.37,47.47,9.29,70.81,26.7,70.81,26.7"/>
  <path class="cls-1" d="M677.62,516.42c34.95,37.43,84.73,60.83,139.98,60.83,105.75,0,191.47-85.73,191.47-191.47s-85.73-191.47-191.47-191.47c-12.29,0-24.31,1.09-35.94,3.37-47.47,9.29-70.81,26.7-70.81,26.7"/>
  <path class="cls-1" d="M316.81,192.6c47-75.01,130.4-124.89,225.45-124.89,105.15,0,196.04,61.04,239.16,149.62"/>
  <polyline class="cls-1" points="241.6 568.54 241.6 980.37 849.25 980.37 849.25 560.24"/>
  <line class="cls-1" x1="236.85" y1="801.16" x2="850.43" y2="801.16"/>
  <g>
    <line class="cls-1" x1="693.1" y1="667.05" x2="693.1" y2="809.47"/>
    <line class="cls-1" x1="540" y1="607.71" x2="540" y2="809.47"/>
    <line class="cls-1" x1="386.9" y1="667.05" x2="386.9" y2="809.47"/>
  </g>
</svg>