<?xml version="1.0" encoding="UTF-8"?>
<svg id="Capa_1" data-name="Capa 1" xmlns="http://www.w3.org/2000/svg" viewBox="0 0 1080 1080">
  <defs>
    <style>
      .cls-1 {
        fill: #f32735;
      }
    </style>
  </defs>
  <polygon class="cls-1" points="912.12 926.3 150.54 926.3 150.54 186.87 230.54 186.87 230.54 846.3 912.12 846.3 912.12 926.3"/>
  <polygon class="cls-1" points="302.01 334.92 195.28 228.19 88.56 334.92 31.99 278.35 195.28 115.06 358.58 278.35 302.01 334.92"/>
  <polygon class="cls-1" points="828.59 1049.59 772.02 993.02 878.75 886.3 772.02 779.57 828.59 723.01 991.88 886.3 828.59 1049.59"/>
  <polygon class="cls-1" points="983.77 674.25 903.77 674.25 903.77 207.88 386.76 207.88 386.76 127.88 983.77 127.88 983.77 674.25"/>
  <path class="cls-1" d="M501.47,495.07c16.69-29.1,41.02-42.45,75.36-42.45,56.28,0,82.52,36.73,82.52,99.69v134.98h-57.24v-131.17c0-33.87-13.83-51.99-42.45-51.99-30.05,0-49.13,21.94-49.13,59.14v124.01h-57.24v-137.85c0-22.89-9.06-45.31-39.11-45.31-35.3,0-52.47,25.28-52.47,58.19v124.97h-57.24v-228.95h54.38v35.77h.95c12.4-25.76,36.73-41.5,70.12-41.5,35.3,0,59.62,13.83,71.55,42.45Z"/>
  <g>
    <path class="cls-1" d="M841.06,337.44c0,22.66-9.49,41.64-33.07,63.38l-67.36,62.46h100.43v33.07h-145.14v-38.89l84.21-81.45c18.07-17.45,22.35-26.33,22.35-36.74,0-17.76-14.39-28.48-31.54-28.48s-30.93,11.63-33.38,29.39l-38.58-3.06c3.98-40.11,32.15-61.24,71.96-61.24,41.95,0,70.12,22.35,70.12,61.55Z"/>
    <path class="cls-1" d="M846.06,501.35h-155.14v-46.01l85.73-82.92c17.51-16.92,20.83-24.7,20.83-33.15,0-16.13-13.76-23.48-26.54-23.48-15.16,0-26.32,9.84-28.42,25.08l-.64,4.67-48.37-3.84.5-5.07c4.09-41.17,32.84-65.75,76.93-65.75,22.11,0,40.8,5.97,54.04,17.27,13.79,11.77,21.08,28.81,21.08,49.27,0,24.59-10.37,44.65-34.68,67.06l-58.01,53.79h92.69v43.07ZM700.92,491.35h135.14v-23.07h-108.18l76.71-71.13c22.06-20.34,31.47-38.2,31.47-59.72,0-35.41-24.34-56.55-65.12-56.55-37.13,0-61.04,18.75-66.33,51.67l28.89,2.29c4.35-17.57,18.88-29.06,37.44-29.06,21.17,0,36.54,14.08,36.54,33.48,0,12.91-6.03,23.09-23.88,40.34l-82.68,79.97v31.77Z"/>
  </g>
</svg>